<svg width="1600" height="1100" viewBox="0 0 1600 1100" fill="none" xmlns="http://www.w3.org/2000/svg">
  <rect width="1600" height="1100" rx="48" fill="#0A0B11"/>
  <rect x="84" y="84" width="1432" height="932" rx="40" fill="#101420" stroke="#1D2538"/>
  <rect x="136" y="136" width="404" height="828" rx="32" fill="#0D1220" stroke="#1B2540"/>
  <rect x="580" y="136" width="884" height="182" rx="32" fill="#0D1220" stroke="#1B2540"/>
  <rect x="580" y="358" width="884" height="606" rx="32" fill="#0D1220" stroke="#1B2540"/>
  <rect x="188" y="194" width="300" height="70" rx="22" fill="#121A2B"/>
  <rect x="220" y="220" width="164" height="18" rx="9" fill="#6EE7C8"/>
  <rect x="188" y="318" width="300" height="124" rx="24" fill="#121A2B"/>
  <rect x="188" y="476" width="300" height="124" rx="24" fill="#121A2B"/>
  <rect x="188" y="634" width="300" height="124" rx="24" fill="#121A2B"/>
  <rect x="188" y="792" width="300" height="124" rx="24" fill="#121A2B"/>
  <rect x="640" y="190" width="208" height="22" rx="11" fill="#6A8DFF" fill-opacity="0.78"/>
  <rect x="640" y="240" width="332" height="18" rx="9" fill="#25314D"/>
  <rect x="1118" y="182" width="284" height="88" rx="24" fill="#11182A"/>
  <rect x="636" y="416" width="772" height="82" rx="24" fill="#11182A"/>
  <rect x="636" y="530" width="772" height="82" rx="24" fill="#11182A"/>
  <rect x="636" y="644" width="772" height="82" rx="24" fill="#11182A"/>
  <rect x="636" y="758" width="772" height="148" rx="28" fill="#11182A"/>
  <path d="M712 457H884L942 571H1112" stroke="#6EE7C8" stroke-width="12" stroke-linecap="round" stroke-linejoin="round"/>
  <path d="M712 571H842L906 685H1112" stroke="#6A8DFF" stroke-width="12" stroke-linecap="round" stroke-linejoin="round"/>
  <path d="M712 685H808L876 798H1112" stroke="#E7A85F" stroke-width="12" stroke-linecap="round" stroke-linejoin="round"/>
  <circle cx="712" cy="457" r="14" fill="#6EE7C8"/>
  <circle cx="712" cy="571" r="14" fill="#6A8DFF"/>
  <circle cx="712" cy="685" r="14" fill="#E7A85F"/>
  <rect x="118" y="110" width="26" height="26" rx="6" transform="rotate(45 118 110)" fill="#6EE7C8" fill-opacity="0.9"/>
  <rect x="1436" y="134" width="34" height="34" rx="8" transform="rotate(45 1436 134)" fill="#6A8DFF" fill-opacity="0.84"/>
</svg>
